<svg width="183" height="54" viewBox="0 0 183 54" fill="none" xmlns="http://www.w3.org/2000/svg">
<path d="M175.912 54H6.76585C3.04463 54 0 50.9625 0 47.25V6.75C0 3.0375 3.04463 0 6.76585 0H175.912C179.633 0 182.678 3.0375 182.678 6.75V47.25C182.678 50.9625 179.633 54 175.912 54Z" fill="#191919"/>
<path d="M62.3474 13.8389C62.3474 14.9711 62.0116 15.8722 61.3385 16.545C60.5734 17.3449 59.5781 17.7448 58.3539 17.7448C57.1798 17.7448 56.1831 17.3395 55.3638 16.5275C54.5418 15.7169 54.1328 14.7103 54.1328 13.5106C54.1328 12.3096 54.5418 11.3044 55.3638 10.4924C56.1831 9.68181 57.1798 9.27515 58.3539 9.27515C58.9348 9.27515 59.4928 9.38863 60.0209 9.61561C60.5504 9.84258 60.9743 10.1439 61.2925 10.5208L60.5775 11.2341C60.0398 10.5938 59.2991 10.2722 58.3539 10.2722C57.498 10.2722 56.7586 10.5721 56.1343 11.172C55.51 11.7732 55.1986 12.5514 55.1986 13.5106C55.1986 14.4685 55.51 15.2481 56.1343 15.8479C56.7586 16.4491 57.498 16.7477 58.3539 16.7477C59.2612 16.7477 60.0168 16.4464 60.6235 15.8425C61.0162 15.4494 61.2424 14.9035 61.3033 14.201H58.3539V13.2269H62.2905C62.3285 13.439 62.3474 13.643 62.3474 13.8389Z" fill="white"/>
<path d="M62.3474 13.8389C62.3474 14.9711 62.0116 15.8722 61.3385 16.545C60.5734 17.3449 59.5781 17.7448 58.3539 17.7448C57.1798 17.7448 56.1831 17.3395 55.3638 16.5275C54.5418 15.7169 54.1328 14.7103 54.1328 13.5106C54.1328 12.3096 54.5418 11.3044 55.3638 10.4924C56.1831 9.68181 57.1798 9.27515 58.3539 9.27515C58.9348 9.27515 59.4928 9.38863 60.0209 9.61561C60.5504 9.84258 60.9743 10.1439 61.2925 10.5208L60.5775 11.2341C60.0398 10.5938 59.2991 10.2722 58.3539 10.2722C57.498 10.2722 56.7586 10.5721 56.1343 11.172C55.51 11.7732 55.1986 12.5514 55.1986 13.5106C55.1986 14.4685 55.51 15.2481 56.1343 15.8479C56.7586 16.4491 57.498 16.7477 58.3539 16.7477C59.2612 16.7477 60.0168 16.4464 60.6235 15.8425C61.0162 15.4494 61.2424 14.9035 61.3033 14.201H58.3539V13.2269H62.2905C62.3285 13.439 62.3474 13.643 62.3474 13.8389Z" stroke="white" stroke-width="0.833334" stroke-miterlimit="10"/>
<path d="M68.5895 10.4535H64.8898V13.0231H68.2266V13.9972H64.8898V16.5669H68.5895V17.5639H63.8457V9.45776H68.5895V10.4535Z" fill="white" stroke="white" stroke-width="0.833334" stroke-miterlimit="10"/>
<path d="M72.9934 17.5635H71.9493V10.453H69.6797V9.45728H75.2631V10.453H72.9934V17.5635Z" fill="white" stroke="white" stroke-width="0.833334" stroke-miterlimit="10"/>
<path d="M80.3468 9.45728H79.3027V17.5635H80.3468V9.45728Z" fill="white" stroke="white" stroke-width="0.833334" stroke-miterlimit="10"/>
<path d="M84.9758 17.5635H83.9318V10.453H81.6621V9.45728H87.2455V10.453H84.9758V17.5635Z" fill="white" stroke="white" stroke-width="0.833334" stroke-miterlimit="10"/>
<path d="M92.6298 15.8371C93.231 16.4451 93.9664 16.7477 94.8371 16.7477C95.7079 16.7477 96.4432 16.4451 97.0445 15.8371C97.6457 15.2291 97.9477 14.4536 97.9477 13.5106C97.9477 12.5676 97.6457 11.7908 97.0445 11.1842C96.4432 10.5762 95.7079 10.2722 94.8371 10.2722C93.9664 10.2722 93.231 10.5762 92.6298 11.1842C92.0299 11.7908 91.7279 12.5676 91.7279 13.5106C91.7279 14.4536 92.0299 15.2291 92.6298 15.8371ZM97.8164 16.5153C97.0174 17.3354 96.0248 17.7448 94.8371 17.7448C93.6495 17.7448 92.6569 17.3354 91.8592 16.5153C91.0602 15.6966 90.6621 14.6955 90.6621 13.5106C90.6621 12.3258 91.0602 11.3233 91.8592 10.5046C92.6569 9.68586 93.6495 9.27515 94.8371 9.27515C96.018 9.27515 97.0079 9.68721 97.811 10.51C98.6126 11.3328 99.0135 12.3325 99.0135 13.5106C99.0135 14.6955 98.614 15.6966 97.8164 16.5153Z" fill="white"/>
<path d="M92.6298 15.8371C93.231 16.4451 93.9664 16.7477 94.8371 16.7477C95.7079 16.7477 96.4432 16.4451 97.0445 15.8371C97.6457 15.2291 97.9477 14.4536 97.9477 13.5106C97.9477 12.5676 97.6457 11.7908 97.0445 11.1842C96.4432 10.5762 95.7079 10.2722 94.8371 10.2722C93.9664 10.2722 93.231 10.5762 92.6298 11.1842C92.0299 11.7908 91.7279 12.5676 91.7279 13.5106C91.7279 14.4536 92.0299 15.2291 92.6298 15.8371ZM97.8164 16.5153C97.0174 17.3354 96.0248 17.7448 94.8371 17.7448C93.6495 17.7448 92.6569 17.3354 91.8592 16.5153C91.0602 15.6966 90.6621 14.6955 90.6621 13.5106C90.6621 12.3258 91.0602 11.3233 91.8592 10.5046C92.6569 9.68586 93.6495 9.27515 94.8371 9.27515C96.018 9.27515 97.0079 9.68721 97.811 10.51C98.6126 11.3328 99.0135 12.3325 99.0135 13.5106C99.0135 14.6955 98.614 15.6966 97.8164 16.5153Z" stroke="white" stroke-width="0.833334" stroke-miterlimit="10"/>
<path d="M100.479 17.5635V9.45728H101.749L105.698 15.7625H105.744L105.698 14.2007V9.45728H106.743V17.5635H105.653L101.521 10.9515H101.477L101.521 12.5147V17.5635H100.479Z" fill="white" stroke="white" stroke-width="0.833334" stroke-miterlimit="10"/>
<path d="M142.947 40.5312H145.474V23.6419H142.947V40.5312ZM165.707 29.7256L162.81 37.0482H162.724L159.717 29.7256H156.995L161.503 39.9597L158.935 45.6529H161.568L168.517 29.7256H165.707ZM151.377 38.6127C150.548 38.6127 149.394 38.2006 149.394 37.1779C149.394 35.8755 150.831 35.3756 152.073 35.3756C153.183 35.3756 153.707 35.6148 154.382 35.9404C154.185 37.5048 152.835 38.6127 151.377 38.6127ZM151.681 29.3568C149.852 29.3568 147.956 30.1606 147.173 31.9427L149.416 32.8762C149.895 31.9427 150.788 31.6373 151.725 31.6373C153.032 31.6373 154.36 32.4196 154.382 33.8111V33.9841C153.924 33.7233 152.945 33.3329 151.746 33.3329C149.329 33.3329 146.867 34.6582 146.867 37.1347C146.867 39.3949 148.85 40.8514 151.071 40.8514C152.77 40.8514 153.707 40.0907 154.295 39.199H154.382V40.5028H156.821V34.0273C156.821 31.0294 154.578 29.3568 151.681 29.3568ZM136.065 31.7819H132.471V25.9927H136.065C137.954 25.9927 139.026 27.5532 139.026 28.8866C139.026 30.1958 137.954 31.7819 136.065 31.7819ZM136 23.6419H129.945V40.5312H132.471V34.1327H136C138.8 34.1327 141.553 32.1088 141.553 28.8866C141.553 25.6644 138.8 23.6419 136 23.6419ZM102.983 38.6154C101.237 38.6154 99.7761 37.1576 99.7761 35.1554C99.7761 33.1316 101.237 31.6508 102.983 31.6508C104.707 31.6508 106.058 33.1316 106.058 35.1554C106.058 37.1576 104.707 38.6154 102.983 38.6154ZM105.885 30.6713H105.797C105.23 29.9972 104.139 29.3879 102.765 29.3879C99.8845 29.3879 97.2451 31.9116 97.2451 35.1554C97.2451 38.3763 99.8845 40.8797 102.765 40.8797C104.139 40.8797 105.23 40.2704 105.797 39.5733H105.885V40.4015C105.885 42.5996 104.707 43.775 102.808 43.775C101.259 43.775 100.299 42.6644 99.9061 41.7282L97.7028 42.6428C98.3353 44.1668 100.016 46.038 102.808 46.038C105.775 46.038 108.285 44.2965 108.285 40.0529V29.7351H105.885V30.6713ZM110.03 40.5312H112.561V23.6406H110.03V40.5312ZM116.291 34.9595C116.226 32.7398 118.015 31.6076 119.301 31.6076C120.306 31.6076 121.156 32.1075 121.439 32.8262L116.291 34.9595ZM124.145 33.0437C123.666 31.7603 122.203 29.3879 119.214 29.3879C116.247 29.3879 113.783 31.7157 113.783 35.1338C113.783 38.3546 116.226 40.8797 119.497 40.8797C122.138 40.8797 123.666 39.2693 124.298 38.333L122.334 37.0266C121.68 37.9845 120.785 38.6154 119.497 38.6154C118.211 38.6154 117.294 38.0277 116.705 36.8753L124.406 33.6963L124.145 33.0437ZM62.7888 31.1509V33.5882H68.6349C68.4602 34.9595 68.0024 35.9606 67.305 36.6564C66.4532 37.5062 65.1221 38.4425 62.7888 38.4425C59.1879 38.4425 56.3739 35.5472 56.3739 31.9562C56.3739 28.3638 59.1879 25.4699 62.7888 25.4699C64.7307 25.4699 66.1485 26.2318 67.1953 27.2113L68.9192 25.4915C67.4567 24.0986 65.5161 23.0312 62.7888 23.0312C57.8581 23.0312 53.7129 27.0371 53.7129 31.9562C53.7129 36.8753 57.8581 40.8797 62.7888 40.8797C65.4498 40.8797 67.4567 40.0083 69.0276 38.3763C70.6431 36.7658 71.1442 34.5029 71.1442 32.6736C71.1442 32.1075 71.1009 31.586 71.0128 31.1509H62.7888ZM77.792 38.6154C76.0464 38.6154 74.5405 37.1792 74.5405 35.1338C74.5405 33.0654 76.0464 31.6508 77.792 31.6508C79.5362 31.6508 81.0421 33.0654 81.0421 35.1338C81.0421 37.1792 79.5362 38.6154 77.792 38.6154ZM77.792 29.3879C74.6055 29.3879 72.0095 31.8035 72.0095 35.1338C72.0095 38.4425 74.6055 40.8797 77.792 40.8797C80.9771 40.8797 83.5731 38.4425 83.5731 35.1338C83.5731 31.8035 80.9771 29.3879 77.792 29.3879ZM90.4037 38.6154C88.6581 38.6154 87.1522 37.1792 87.1522 35.1338C87.1522 33.0654 88.6581 31.6508 90.4037 31.6508C92.1493 31.6508 93.6538 33.0654 93.6538 35.1338C93.6538 37.1792 92.1493 38.6154 90.4037 38.6154ZM90.4037 29.3879C87.2186 29.3879 84.6226 31.8035 84.6226 35.1338C84.6226 38.4425 87.2186 40.8797 90.4037 40.8797C93.5888 40.8797 96.1848 38.4425 96.1848 35.1338C96.1848 31.8035 93.5888 29.3879 90.4037 29.3879Z" fill="white"/>
<path d="M26.1897 26.2427L11.7715 41.5093C11.7728 41.512 11.7728 41.5161 11.7742 41.5188C12.217 43.1765 13.7337 44.3965 15.5348 44.3965C16.2553 44.3965 16.931 44.2019 17.5106 43.8615L17.5566 43.8345L33.7854 34.4921L26.1897 26.2427Z" fill="#EA4335"/>
<path d="M40.7752 23.643L40.7616 23.6335L33.755 19.5818L25.8613 26.5896L33.7834 34.4904L40.7522 30.4792C41.9736 29.8199 42.8038 28.5351 42.8038 27.0543C42.8038 25.5817 41.9858 24.3036 40.7752 23.643Z" fill="#FBBC04"/>
<path d="M11.7714 12.5337C11.6847 12.8525 11.6387 13.1876 11.6387 13.5335V40.5108C11.6387 40.8567 11.6847 41.1918 11.7727 41.5093L26.6852 26.6331L11.7714 12.5337Z" fill="#4285F4"/>
<path d="M26.2967 27.022L33.7583 19.5791L17.5485 10.203C16.9594 9.85036 16.2715 9.64771 15.5362 9.64771C13.7351 9.64771 12.2157 10.8704 11.7728 12.5295L11.7715 12.5335L26.2967 27.022Z" fill="#34A853"/>
</svg>
